<svg width="50" height="50" viewBox="0 0 50 50" fill="none" xmlns="http://www.w3.org/2000/svg">
<path fill-rule="evenodd" clip-rule="evenodd" d="M30.125 8.70293C35.5464 12.006 39.8693 17.1387 42.0626 23.1113L42.0513 23.1075C43.5435 27.1942 43.671 32.1132 42.5837 35.9749C41.4064 40.1591 39.3331 42.3749 36.2025 45.0631C35.4301 45.7305 34.2341 45.0931 34.3616 44.077C34.6016 42.1762 34.5603 40.8227 33.8967 39.7279C33.3629 38.8477 31.675 37.4973 30.8458 36.8713C33.7287 38.7794 35.074 36.4473 35.074 36.4473C36.9598 37.2384 38.0171 35.4988 37.7434 34.4977C37.4267 33.336 37.2375 32.2056 37.0564 31.123C36.5342 28.0023 36.0784 25.2783 32.8244 23.3437L32.5957 23.1975C33.0667 21.1395 33.1911 20.174 32.3733 18.4703C32.3613 18.4412 32.3478 18.4135 32.333 18.3872C32.3171 18.355 32.301 18.3225 32.2845 18.2897L32.3239 18.3716C31.9592 17.7588 30.8523 17.912 30.5449 18.6647C30.5076 18.7555 30.4654 18.8673 30.4176 18.9938C30.0707 19.9123 29.4304 21.6075 28.2803 21.6866C28.1454 21.6978 28.0141 21.6941 27.8567 21.6791C26.9681 21.6041 26.2782 20.4268 25.9596 19.5945C25.6146 18.6872 25.1685 17.9298 24.3811 17.3187C23.5825 16.8838 23.2301 17.4574 22.9002 18.391C22.8897 18.421 22.878 18.451 22.8663 18.481C22.8487 18.526 22.8312 18.5709 22.8177 18.6159C22.3375 20.3445 22.4569 21.2191 22.5741 22.0766C22.5895 22.1899 22.605 22.303 22.619 22.4177C22.664 22.8151 22.5515 23.2163 22.3003 23.5274C22.1053 23.7711 21.8841 24.0111 21.7492 24.1536L21.7004 24.2023C21.2055 24.671 13.6283 32.0082 15.7391 41.775C16.1103 43.4922 13.9545 44.5832 12.7547 43.2972C9.1217 39.4017 6.75217 32.6081 7.8657 27.2917C8.59305 23.8274 9.91279 21.4616 12.9759 17.9411C13.6599 17.1546 14.3096 16.5031 14.8973 15.9137C16.6322 14.1737 17.8272 12.9753 17.7712 10.4463C17.6737 5.95474 14.3519 4.70249 14.3519 4.70249C16.7402 4.6275 19.1547 4.83371 21.5017 5.32486C23.2638 5.73353 27.7667 7.06076 28.9065 12.291C28.9065 12.291 29.8888 10.6675 28.4228 7.75063C29.0002 8.04682 29.5701 8.36174 30.125 8.70293ZM32.3239 18.3716L32.382 18.4922C32.3792 18.4848 32.3763 18.4775 32.3733 18.4703C32.3601 18.4428 32.3467 18.4151 32.333 18.3872C32.33 18.3819 32.327 18.3767 32.3239 18.3716ZM30.4212 36.5673C30.2826 36.4608 30.4812 36.596 30.8458 36.8713C30.7078 36.7799 30.5662 36.6788 30.4212 36.5673ZM23.6417 20.1768C23.7129 19.8845 23.8515 19.5136 24.1288 19.3787C24.3199 19.285 24.5372 19.36 24.6684 19.5286C25.0018 19.952 24.9232 20.6115 24.8332 21.1173C24.6197 22.0803 24.6759 23.0695 24.7396 24.0474C23.844 22.9945 23.3494 21.5557 23.6454 20.1806L23.6417 20.1768ZM27.89 27.758C27.8263 27.6268 27.9312 27.4769 28.0736 27.5032L28.0737 27.5032C28.5158 27.5819 28.9579 27.6605 29.3925 27.758C30.4941 28.0053 30.9363 28.6198 31.1798 29.8563C31.2673 30.2909 31.3372 30.6356 31.3897 30.8904C31.2475 30.8904 31.0974 30.8931 30.9419 30.8958H30.9418C30.5726 30.9023 30.1727 30.9093 29.7747 30.8829C28.7705 30.8155 28.0661 30.0174 28.0174 28.8746C28.0128 28.7794 28.0125 28.6835 28.0122 28.588C28.0113 28.2965 28.0104 28.0092 27.8862 27.758H27.89Z" fill="#01DBEF"/>
</svg>
